<svg width="308" height="73" viewBox="0 0 308 73" fill="none" xmlns="http://www.w3.org/2000/svg">
<path d="M10.68 53.34C9.8 53.34 8.9 53.28 7.98 53.16C5.46 52.84 3.6 52.1 2.4 50.94C1.24 49.78 0.66 48.52 0.66 47.16C0.66 45.68 1.32 44.34 2.64 43.14C3.96 41.9 5.82 41.28 8.22 41.28C9.82 41.28 11.56 41.6 13.44 42.24C14.48 42.6 15.72 43.2 17.16 44.04C18.6 44.88 20.26 45.76 22.14 46.68C24.14 44.76 25.96 42.38 27.6 39.54C29.28 36.7 30.94 33.66 32.58 30.42C34.26 27.14 36.06 23.86 37.98 20.58C39.94 17.3 42.2 14.22 44.76 11.34L48.24 7.44C46.76 7.2 45.22 7.02 43.62 6.9C42.02 6.74 40.36 6.66 38.64 6.66C36.48 6.66 34.26 6.78 31.98 7.02C29.7 7.22 27.42 7.56 25.14 8.04C21.38 8.84 18.2 10.12 15.6 11.88C13 13.64 11.02 15.56 9.66 17.64C8.34 19.68 7.68 21.6 7.68 23.4C7.68 24.64 8.02 25.76 8.7 26.76C9.42 27.72 10.48 28.42 11.88 28.86C12.76 29.14 13.66 29.28 14.58 29.28C15.94 29.28 17.14 29 18.18 28.44C19.22 27.88 20.1 27.2 20.82 26.4C21.54 25.56 22.06 24.76 22.38 24C22.74 23.24 22.9 22.68 22.86 22.32C22.86 22.04 23.06 21.9 23.46 21.9C23.86 21.9 24.06 22.2 24.06 22.8V22.86C24.06 24.5 23.56 25.92 22.56 27.12C21.56 28.32 20.3 29.24 18.78 29.88C17.3 30.52 15.8 30.84 14.28 30.84C13.32 30.84 12.32 30.68 11.28 30.36C9.12 29.6 7.52 28.5 6.48 27.06C5.44 25.58 4.92 23.96 4.92 22.2C4.92 20.56 5.36 18.88 6.24 17.16C7.16 15.4 8.5 13.74 10.26 12.18C12.02 10.58 14.2 9.2 16.8 8.04C19.44 6.88 22.48 6.06 25.92 5.58C27.76 5.3 29.58 5.1 31.38 4.98C33.18 4.86 34.92 4.8 36.6 4.8C38.92 4.8 41.18 4.92 43.38 5.16C45.62 5.36 47.72 5.68 49.68 6.12C50.24 5.64 50.8 5.22 51.36 4.86C51.96 4.5 52.5 4.22 52.98 4.02C53.26 3.9 53.5 3.82 53.7 3.78C53.9 3.74 54.06 3.72 54.18 3.72C54.42 3.72 54.54 3.8 54.54 3.96C54.54 4.16 54.24 4.48 53.64 4.92C53.24 5.2 52.86 5.52 52.5 5.88C52.14 6.2 51.92 6.44 51.84 6.6C55.92 7.64 59.22 9.08 61.74 10.92C64.3 12.72 65.58 14.86 65.58 17.34C65.58 18.62 65.16 20.02 64.32 21.54C63.44 23.02 62.22 24.22 60.66 25.14C59.1 26.02 57.44 26.68 55.68 27.12C53.92 27.52 52.28 27.76 50.76 27.84C52.08 28.24 53.52 28.84 55.08 29.64C56.68 30.4 58.14 31.34 59.46 32.46C60.82 33.58 61.72 34.9 62.16 36.42C62.44 37.38 62.58 38.36 62.58 39.36C62.58 41.48 61.96 43.4 60.72 45.12C59.52 46.84 57.9 48.32 55.86 49.56C53.86 50.76 51.66 51.68 49.26 52.32C46.86 53 44.48 53.34 42.12 53.34C41.24 53.34 40.34 53.28 39.42 53.16C35.58 52.68 32.4 52.08 29.88 51.36C27.4 50.64 25.22 49.84 23.34 48.96C19.46 51.88 15.24 53.34 10.68 53.34ZM41.28 51.6C43.76 51.6 46.02 51.22 48.06 50.46C50.1 49.7 51.86 48.7 53.34 47.46C54.86 46.22 56.02 44.84 56.82 43.32C57.66 41.8 58.08 40.3 58.08 38.82C58.08 37.42 57.66 36.06 56.82 34.74C55.98 33.42 54.66 32.32 52.86 31.44C51.3 30.68 49.68 30.06 48 29.58C46.36 29.06 44.94 28.62 43.74 28.26C42.54 27.86 41.84 27.46 41.64 27.06C41.64 26.58 41.84 26.26 42.24 26.1C42.68 25.9 43.24 25.8 43.92 25.8C44.72 25.8 45.68 25.86 46.8 25.98C47.92 26.1 49.1 26.16 50.34 26.16C51.62 26.16 52.92 25.88 54.24 25.32C55.6 24.72 56.84 23.94 57.96 22.98C59.08 21.98 59.98 20.9 60.66 19.74C61.38 18.54 61.74 17.32 61.74 16.08C61.74 14.96 61.36 13.86 60.6 12.78C59.84 11.7 58.58 10.76 56.82 9.96C55.06 9.16 53.16 8.52 51.12 8.04C49.12 10.8 47.12 13.9 45.12 17.34C43.12 20.74 41.12 24.2 39.12 27.72C37.12 31.2 35.1 34.5 33.06 37.62C31.02 40.74 28.98 43.42 26.94 45.66C26.46 46.18 26.08 46.58 25.8 46.86C25.52 47.1 25.14 47.44 24.66 47.88C26.54 48.64 28.68 49.36 31.08 50.04C33.48 50.72 36.22 51.2 39.3 51.48C39.62 51.52 39.94 51.54 40.26 51.54C40.62 51.58 40.96 51.6 41.28 51.6ZM9.48 51.48C11.72 51.6 13.76 51.34 15.6 50.7C17.48 50.02 19.22 49.08 20.82 47.88C19.42 47.2 17.98 46.5 16.5 45.78C15.06 45.02 13.52 44.34 11.88 43.74C10.72 43.34 9.66 43.14 8.7 43.14C7.22 43.14 6.1 43.54 5.34 44.34C4.58 45.1 4.2 45.98 4.2 46.98C4.2 48.02 4.64 49.02 5.52 49.98C6.4 50.9 7.72 51.4 9.48 51.48ZM155.943 58.5C154.743 58.5 153.743 58.06 152.943 57.18C152.183 56.3 151.883 54.64 152.043 52.2C152.203 49.68 152.983 46.44 154.383 42.48C155.783 38.52 157.603 33.86 159.843 28.5C160.563 26.78 161.283 24.86 162.003 22.74C162.763 20.62 163.403 18.5 163.923 16.38C164.443 14.22 164.703 12.28 164.703 10.56C164.703 9.36 164.543 8.32 164.223 7.44C163.943 6.52 163.423 5.84 162.663 5.4C161.783 4.84 160.843 4.44 159.843 4.2C158.843 3.96 157.783 3.84 156.663 3.84C154.143 3.84 151.483 4.42 148.683 5.58C145.923 6.74 143.243 8.34 140.643 10.38C138.083 12.38 135.783 14.66 133.743 17.22C131.743 19.78 130.223 22.44 129.183 25.2C128.583 26.84 128.143 28.38 127.863 29.82C127.583 31.26 127.443 32.56 127.443 33.72C127.443 35.92 127.843 37.76 128.643 39.24C129.483 40.68 130.563 41.76 131.883 42.48C133.243 43.16 134.703 43.5 136.263 43.5C137.743 43.5 139.143 43.24 140.463 42.72C142.183 42.08 143.723 41 145.083 39.48C146.443 37.96 147.523 36.28 148.323 34.44C149.123 32.56 149.523 30.84 149.523 29.28C149.523 27.92 149.163 26.78 148.443 25.86C147.763 24.94 146.623 24.48 145.023 24.48C144.783 24.48 144.543 24.48 144.303 24.48C144.103 24.48 143.863 24.52 143.583 24.6C143.423 24.64 143.283 24.66 143.163 24.66C143.043 24.66 142.943 24.66 142.863 24.66C142.503 24.66 142.323 24.58 142.323 24.42C142.323 24.18 142.703 23.92 143.463 23.64C144.703 23.24 145.863 23.04 146.943 23.04C148.823 23.04 150.223 23.6 151.143 24.72C152.063 25.8 152.523 27.18 152.523 28.86C152.523 30.54 152.063 32.36 151.143 34.32C150.223 36.24 148.863 38.08 147.063 39.84C145.303 41.6 143.083 43.04 140.403 44.16C138.963 44.76 137.483 45.06 135.963 45.06C133.883 45.06 131.923 44.52 130.083 43.44C128.243 42.36 126.743 40.82 125.583 38.82C124.423 36.82 123.843 34.46 123.843 31.74C123.843 30.42 124.003 29.04 124.323 27.6C124.643 26.16 125.143 24.64 125.823 23.04C127.143 19.96 128.943 17.16 131.223 14.64C133.503 12.08 136.043 9.88 138.843 8.04C141.683 6.16 144.583 4.72 147.543 3.72C150.503 2.72 153.323 2.22 156.003 2.22C158.363 2.22 160.503 2.64 162.423 3.48C164.543 4.4 166.023 5.72 166.863 7.44C167.743 9.12 168.183 11.02 168.183 13.14C168.183 15.46 167.783 17.94 166.983 20.58C166.223 23.18 165.283 25.74 164.163 28.26C162.923 31.1 161.703 34.06 160.503 37.14C159.303 40.22 158.263 43.14 157.383 45.9C156.503 48.66 155.883 50.96 155.523 52.8C155.443 53.24 155.383 53.62 155.343 53.94C155.303 54.3 155.283 54.6 155.283 54.84C155.283 56.24 155.743 56.94 156.663 56.94C157.223 56.94 157.883 56.7 158.643 56.22C160.123 55.34 161.623 54.02 163.143 52.26C164.663 50.5 166.163 48.5 167.643 46.26C169.163 43.98 170.623 41.66 172.023 39.3C173.423 36.9 174.763 34.64 176.043 32.52C177.323 30.4 178.483 28.6 179.523 27.12C180.163 26.24 180.763 25.6 181.323 25.2C181.883 24.76 182.363 24.54 182.763 24.54C183.603 24.54 184.023 25.18 184.023 26.46C184.023 27.22 183.843 28.14 183.483 29.22C182.963 30.74 182.263 32.48 181.383 34.44C180.503 36.36 179.683 38.32 178.923 40.32C178.163 42.28 177.663 44.12 177.423 45.84C177.383 46.28 177.343 46.68 177.303 47.04C177.303 47.36 177.303 47.7 177.303 48.06C177.303 50.14 177.723 51.62 178.563 52.5C179.403 53.42 180.503 53.88 181.863 53.88C183.423 53.88 185.183 53.38 187.143 52.38C189.143 51.38 191.143 50.06 193.143 48.42C195.143 46.74 196.943 44.9 198.543 42.9C200.183 40.9 201.423 38.9 202.263 36.9C203.183 34.7 203.883 32.56 204.363 30.48C204.843 28.4 205.083 26.5 205.083 24.78C205.083 22.02 204.483 19.78 203.283 18.06C202.083 16.3 200.203 15.42 197.643 15.42C197.443 15.42 197.223 15.44 196.983 15.48C196.743 15.48 196.483 15.5 196.203 15.54C195.243 15.78 194.543 15.9 194.103 15.9C193.583 15.9 193.323 15.78 193.323 15.54C193.323 15.22 193.723 14.86 194.523 14.46C195.323 14.06 196.163 13.94 197.043 14.1C198.963 13.94 200.763 14.38 202.443 15.42C204.163 16.42 205.543 17.94 206.583 19.98C207.623 21.98 208.143 24.42 208.143 27.3C208.143 28.78 207.983 30.38 207.663 32.1C207.343 33.82 206.803 35.62 206.043 37.5C205.043 40.02 203.643 42.36 201.843 44.52C200.043 46.68 198.023 48.58 195.783 50.22C193.583 51.86 191.323 53.12 189.003 54C186.723 54.92 184.583 55.38 182.583 55.38C180.303 55.38 178.383 54.66 176.823 53.22C175.303 51.82 174.543 49.54 174.543 46.38C174.543 45.06 174.663 43.72 174.903 42.36C175.143 41 175.423 39.8 175.743 38.76C175.063 39.88 174.163 41.28 173.043 42.96C171.923 44.6 170.643 46.32 169.203 48.12C167.803 49.92 166.343 51.6 164.823 53.16C163.303 54.76 161.783 56.04 160.263 57C158.743 58 157.303 58.5 155.943 58.5Z" fill="black"/>
<path d="M69.0525 51C67.5325 51 66.4125 50.5 65.6925 49.5C64.9725 48.46 64.6125 47.2 64.6125 45.72C64.6125 43.92 65.0325 42.04 65.8725 40.08C66.6725 38.24 67.6925 36.56 68.9325 35.04C70.1725 33.52 71.5125 32.3 72.9525 31.38C74.3925 30.42 75.7925 29.94 77.1525 29.94C78.6725 29.94 79.7925 30.44 80.5125 31.44C81.2325 32.44 81.5925 33.7 81.5925 35.22C81.5925 37.06 81.1725 38.94 80.3325 40.86C79.8525 41.94 79.1725 43.14 78.2925 44.46C77.4125 45.74 76.4125 46.92 75.2925 48C75.5325 48.44 75.8725 48.82 76.3125 49.14C76.7525 49.42 77.3525 49.56 78.1125 49.56C79.0725 49.56 79.9725 49.16 80.8125 48.36C81.6925 47.56 82.4925 46.6 83.2125 45.48C83.9325 44.32 84.5725 43.16 85.1325 42C85.6925 40.84 86.1525 39.9 86.5125 39.18C86.6325 38.94 86.8325 38.82 87.1125 38.82C87.2725 38.82 87.3925 38.9 87.4725 39.06C87.5525 39.18 87.5325 39.38 87.4125 39.66C87.1725 40.26 86.7725 41.16 86.2125 42.36C85.6525 43.52 84.9725 44.74 84.1725 46.02C83.3725 47.26 82.4525 48.32 81.4125 49.2C80.3725 50.08 79.2125 50.52 77.9325 50.52C77.0525 50.52 76.2925 50.38 75.6525 50.1C75.0125 49.78 74.4925 49.4 74.0925 48.96C73.2525 49.6 72.4125 50.1 71.5725 50.46C70.7325 50.82 69.8925 51 69.0525 51ZM69.9525 49.68C71.0325 49.68 72.1925 49.16 73.4325 48.12C73.1125 47.64 72.8725 47.14 72.7125 46.62C72.5525 46.1 72.4725 45.62 72.4725 45.18C72.4725 44.46 72.6325 43.84 72.9525 43.32C73.3125 42.8 73.8525 42.54 74.5725 42.54C75.0925 42.54 75.5125 42.74 75.8325 43.14C76.1925 43.5 76.3725 43.92 76.3725 44.4C76.3725 44.52 76.3525 44.64 76.3125 44.76C76.3125 44.84 76.2925 44.94 76.2525 45.06C76.9325 44.14 77.5725 43.06 78.1725 41.82C79.4925 38.98 80.1525 36.64 80.1525 34.8C80.1525 33.88 79.9725 33.16 79.6125 32.64C79.2525 32.12 78.7125 31.86 77.9925 31.86C77.1525 31.86 76.2325 32.22 75.2325 32.94C74.2725 33.66 73.3325 34.62 72.4125 35.82C71.5325 37.02 70.7525 38.36 70.0725 39.84C69.4325 41.2 68.9125 42.52 68.5125 43.8C68.1525 45.04 67.9725 46.12 67.9725 47.04C67.9725 47.84 68.1325 48.48 68.4525 48.96C68.7725 49.44 69.2725 49.68 69.9525 49.68ZM89.1502 51C87.6302 51 86.5102 50.5 85.7902 49.5C85.0702 48.46 84.7102 47.2 84.7102 45.72C84.7102 43.92 85.1302 42.04 85.9702 40.08C86.7702 38.24 87.7902 36.56 89.0302 35.04C90.2702 33.52 91.6102 32.3 93.0502 31.38C94.4902 30.42 95.8902 29.94 97.2502 29.94C98.7702 29.94 99.8902 30.44 100.61 31.44C101.33 32.44 101.69 33.7 101.69 35.22C101.69 37.06 101.27 38.94 100.43 40.86C99.9502 41.94 99.2702 43.14 98.3902 44.46C97.5102 45.74 96.5102 46.92 95.3902 48C95.6302 48.44 95.9702 48.82 96.4102 49.14C96.8502 49.42 97.4502 49.56 98.2102 49.56C99.1702 49.56 100.07 49.16 100.91 48.36C101.79 47.56 102.59 46.6 103.31 45.48C104.03 44.32 104.67 43.16 105.23 42C105.79 40.84 106.25 39.9 106.61 39.18C106.73 38.94 106.93 38.82 107.21 38.82C107.37 38.82 107.49 38.9 107.57 39.06C107.65 39.18 107.63 39.38 107.51 39.66C107.27 40.26 106.87 41.16 106.31 42.36C105.75 43.52 105.07 44.74 104.27 46.02C103.47 47.26 102.55 48.32 101.51 49.2C100.47 50.08 99.3102 50.52 98.0302 50.52C97.1502 50.52 96.3902 50.38 95.7502 50.1C95.1102 49.78 94.5902 49.4 94.1902 48.96C93.3502 49.6 92.5102 50.1 91.6702 50.46C90.8302 50.82 89.9902 51 89.1502 51ZM90.0502 49.68C91.1302 49.68 92.2902 49.16 93.5302 48.12C93.2102 47.64 92.9702 47.14 92.8102 46.62C92.6502 46.1 92.5702 45.62 92.5702 45.18C92.5702 44.46 92.7302 43.84 93.0502 43.32C93.4102 42.8 93.9502 42.54 94.6702 42.54C95.1902 42.54 95.6102 42.74 95.9302 43.14C96.2902 43.5 96.4702 43.92 96.4702 44.4C96.4702 44.52 96.4502 44.64 96.4102 44.76C96.4102 44.84 96.3902 44.94 96.3502 45.06C97.0302 44.14 97.6702 43.06 98.2702 41.82C99.5902 38.98 100.25 36.64 100.25 34.8C100.25 33.88 100.07 33.16 99.7102 32.64C99.3502 32.12 98.8102 31.86 98.0902 31.86C97.2502 31.86 96.3302 32.22 95.3302 32.94C94.3702 33.66 93.4302 34.62 92.5102 35.82C91.6302 37.02 90.8502 38.36 90.1702 39.84C89.5302 41.2 89.0102 42.52 88.6102 43.8C88.2502 45.04 88.0702 46.12 88.0702 47.04C88.0702 47.84 88.2302 48.48 88.5502 48.96C88.8702 49.44 89.3702 49.68 90.0502 49.68ZM117.228 51.42C116.148 51.3 115.168 50.8 114.288 49.92C113.448 49 112.868 47.78 112.548 46.26C112.508 45.98 112.468 45.74 112.428 45.54C112.428 45.3 112.428 45.04 112.428 44.76C112.428 43.16 112.788 41.88 113.508 40.92C114.228 39.92 114.888 39.4 115.488 39.36C116.128 39.4 116.908 39.26 117.828 38.94C118.748 38.58 119.548 38.1 120.228 37.5C121.388 36.58 121.968 35.64 121.968 34.68C121.968 33.68 121.388 33.18 120.228 33.18C119.588 33.18 118.768 33.4 117.768 33.84C116.808 34.28 115.688 35.04 114.408 36.12C112.808 37.48 111.148 39.3 109.428 41.58C109.188 42.1 108.908 42.88 108.588 43.92C108.268 44.92 107.988 45.96 107.748 47.04C107.548 48.12 107.448 49.04 107.448 49.8C107.448 50.4 107.548 50.8 107.748 51H103.968C103.528 51 103.308 50.82 103.308 50.46C103.308 50.34 103.328 50.24 103.368 50.16C103.408 50.08 103.448 49.92 103.488 49.68C104.048 47.6 104.788 45.64 105.708 43.8C106.628 41.96 107.548 40.02 108.468 37.98C107.068 40.58 105.788 42.88 104.628 44.88C103.508 46.84 102.648 48.1 102.048 48.66C101.968 48.74 101.868 48.78 101.748 48.78C101.588 48.78 101.488 48.68 101.448 48.48C101.368 48.28 101.408 48.08 101.568 47.88C102.408 46.76 103.368 45.22 104.448 43.26C105.568 41.3 106.748 39.12 107.988 36.72C109.228 34.28 110.488 31.82 111.768 29.34C113.048 26.86 114.288 24.52 115.488 22.32C116.728 20.12 117.848 18.26 118.848 16.74C119.568 15.66 120.248 14.9 120.888 14.46C121.528 13.98 122.188 13.74 122.868 13.74H123.168C123.528 13.74 123.928 13.8 124.368 13.92C124.848 14.04 125.288 14.06 125.688 13.98C124.928 14.58 124.008 15.56 122.928 16.92C121.848 18.28 120.708 19.9 119.508 21.78C118.308 23.66 117.088 25.66 115.848 27.78C114.648 29.9 113.508 32 112.428 34.08C112.028 34.88 111.648 35.72 111.288 36.6C110.928 37.48 110.588 38.36 110.268 39.24C111.108 38.2 112.068 37.12 113.148 36C114.228 34.88 115.348 33.86 116.508 32.94C117.708 31.98 118.888 31.28 120.048 30.84C121.368 30.36 122.468 30.12 123.348 30.12C124.268 30.12 124.928 30.34 125.328 30.78C125.768 31.22 125.988 31.78 125.988 32.46C125.988 33.22 125.688 34.14 125.088 35.22C124.488 36.26 123.668 37.16 122.628 37.92C121.748 38.52 120.828 39.04 119.868 39.48C118.908 39.92 117.768 40.2 116.448 40.32C116.208 40.88 116.028 41.46 115.908 42.06C115.828 42.62 115.788 43.18 115.788 43.74C115.788 45.3 116.148 46.68 116.868 47.88C117.588 49.04 118.528 49.62 119.688 49.62C120.248 49.62 120.848 49.46 121.488 49.14C122.168 48.82 122.868 48.28 123.588 47.52C124.388 46.72 125.188 45.58 125.988 44.1C126.828 42.62 127.668 41 128.508 39.24C128.668 38.92 128.848 38.76 129.048 38.76C129.288 38.76 129.408 38.92 129.408 39.24C129.408 39.4 129.348 39.6 129.228 39.84C128.068 42.52 126.948 44.66 125.868 46.26C124.828 47.82 123.808 49 122.808 49.8C121.848 50.56 120.908 51.04 119.988 51.24C119.068 51.44 118.148 51.5 117.228 51.42ZM212.138 51C210.618 51 209.498 50.5 208.778 49.5C208.058 48.46 207.698 47.2 207.698 45.72C207.698 43.92 208.118 42.04 208.958 40.08C209.758 38.24 210.778 36.56 212.018 35.04C213.258 33.52 214.598 32.3 216.038 31.38C217.478 30.42 218.878 29.94 220.238 29.94C221.758 29.94 222.878 30.44 223.598 31.44C224.318 32.44 224.678 33.7 224.678 35.22C224.678 37.06 224.258 38.94 223.418 40.86C222.938 41.94 222.258 43.14 221.378 44.46C220.498 45.74 219.498 46.92 218.378 48C218.618 48.44 218.958 48.82 219.398 49.14C219.838 49.42 220.438 49.56 221.198 49.56C222.158 49.56 223.058 49.16 223.898 48.36C224.778 47.56 225.578 46.6 226.298 45.48C227.018 44.32 227.658 43.16 228.218 42C228.778 40.84 229.238 39.9 229.598 39.18C229.718 38.94 229.918 38.82 230.198 38.82C230.358 38.82 230.478 38.9 230.558 39.06C230.638 39.18 230.618 39.38 230.498 39.66C230.258 40.26 229.858 41.16 229.298 42.36C228.738 43.52 228.058 44.74 227.258 46.02C226.458 47.26 225.538 48.32 224.498 49.2C223.458 50.08 222.298 50.52 221.018 50.52C220.138 50.52 219.378 50.38 218.738 50.1C218.098 49.78 217.578 49.4 217.178 48.96C216.338 49.6 215.498 50.1 214.658 50.46C213.818 50.82 212.978 51 212.138 51ZM213.038 49.68C214.118 49.68 215.278 49.16 216.518 48.12C216.198 47.64 215.958 47.14 215.798 46.62C215.638 46.1 215.558 45.62 215.558 45.18C215.558 44.46 215.718 43.84 216.038 43.32C216.398 42.8 216.938 42.54 217.658 42.54C218.178 42.54 218.598 42.74 218.918 43.14C219.278 43.5 219.458 43.92 219.458 44.4C219.458 44.52 219.438 44.64 219.398 44.76C219.398 44.84 219.378 44.94 219.338 45.06C220.018 44.14 220.658 43.06 221.258 41.82C222.578 38.98 223.238 36.64 223.238 34.8C223.238 33.88 223.058 33.16 222.698 32.64C222.338 32.12 221.798 31.86 221.078 31.86C220.238 31.86 219.318 32.22 218.318 32.94C217.358 33.66 216.418 34.62 215.498 35.82C214.618 37.02 213.838 38.36 213.158 39.84C212.518 41.2 211.998 42.52 211.598 43.8C211.238 45.04 211.058 46.12 211.058 47.04C211.058 47.84 211.218 48.48 211.538 48.96C211.858 49.44 212.358 49.68 213.038 49.68ZM236.496 51.06C235.736 51.06 234.976 50.76 234.216 50.16C233.456 49.52 233.076 48.5 233.076 47.1C233.076 46.02 233.336 44.78 233.856 43.38C234.336 42.02 234.976 40.7 235.776 39.42C236.616 38.14 237.216 37.1 237.576 36.3C237.696 35.98 237.756 35.7 237.756 35.46C237.756 34.74 237.296 34.22 236.376 33.9C235.496 33.58 234.336 33.4 232.896 33.36L232.176 35.34C231.736 36.62 231.116 38.12 230.316 39.84C229.556 41.56 228.696 43.22 227.736 44.82C226.816 46.42 225.856 47.7 224.856 48.66C224.776 48.74 224.676 48.78 224.556 48.78C224.396 48.78 224.296 48.68 224.256 48.48C224.176 48.28 224.256 48.04 224.496 47.76C226.056 45.68 227.456 43.38 228.696 40.86C229.936 38.3 230.976 35.7 231.816 33.06C232.696 30.42 233.336 27.98 233.736 25.74C233.856 25.1 234.076 24.64 234.396 24.36C234.716 24.04 235.056 23.88 235.416 23.88C235.936 23.88 236.416 24.14 236.856 24.66C237.296 25.14 237.516 25.84 237.516 26.76C237.516 26.92 237.496 27.1 237.456 27.3C237.456 27.5 237.436 27.7 237.396 27.9C237.236 28.74 236.756 29.54 235.956 30.3C235.196 31.02 234.576 31.56 234.096 31.92C234.496 31.96 234.916 32 235.356 32.04C235.796 32.04 236.276 32.04 236.796 32.04C238.676 32.04 240.536 31.92 242.376 31.68C242.456 31.92 242.496 32.1 242.496 32.22C242.496 32.74 242.336 33.4 242.016 34.2C241.736 35 241.436 35.72 241.116 36.36C240.956 36.72 240.636 37.38 240.156 38.34C239.676 39.26 239.156 40.32 238.596 41.52C238.036 42.68 237.556 43.84 237.156 45C236.796 46.12 236.616 47.08 236.616 47.88C236.616 48.92 237.016 49.44 237.816 49.44C238.416 49.44 239.076 49.06 239.796 48.3C240.516 47.5 241.216 46.54 241.896 45.42C242.616 44.26 243.256 43.14 243.816 42.06C244.416 40.94 244.876 40.06 245.196 39.42C245.356 39.02 245.576 38.82 245.856 38.82C246.016 38.82 246.096 38.96 246.096 39.24C246.096 39.4 246.036 39.64 245.916 39.96C245.476 40.88 244.956 41.92 244.356 43.08C243.756 44.24 243.076 45.38 242.316 46.5C241.596 47.62 240.796 48.6 239.916 49.44C239.076 50.24 238.156 50.76 237.156 51C237.036 51.04 236.816 51.06 236.496 51.06ZM248.001 51.18C246.321 51.18 245.181 50.74 244.581 49.86C243.981 48.94 243.681 47.86 243.681 46.62C243.681 45.34 243.861 44.02 244.221 42.66C244.581 41.3 244.901 40.16 245.181 39.24C245.821 37 246.621 34.62 247.581 32.1C248.581 29.54 249.661 27.04 250.821 24.6C252.021 22.12 253.201 19.9 254.361 17.94C255.281 16.38 256.261 15.22 257.301 14.46C258.381 13.66 259.321 13.26 260.121 13.26C260.761 13.26 261.261 13.5 261.621 13.98C262.021 14.42 262.221 15.1 262.221 16.02C262.221 16.66 262.101 17.42 261.861 18.3C261.661 19.18 261.301 20.18 260.781 21.3C259.381 24.42 257.701 27.54 255.741 30.66C253.821 33.78 251.381 36.7 248.421 39.42C248.261 39.94 248.041 40.56 247.761 41.28C247.521 41.96 247.301 42.66 247.101 43.38C246.861 44.46 246.741 45.38 246.741 46.14C246.741 47.38 246.981 48.32 247.461 48.96C247.981 49.56 248.601 49.86 249.321 49.86C249.961 49.86 250.641 49.64 251.361 49.2C252.081 48.72 252.761 48.04 253.401 47.16C254.361 45.76 255.221 44.34 255.981 42.9C256.781 41.42 257.381 40.28 257.781 39.48C258.021 39.04 258.281 38.82 258.561 38.82C258.761 38.82 258.861 38.94 258.861 39.18C258.861 39.38 258.801 39.6 258.681 39.84C258.321 40.64 257.841 41.68 257.241 42.96C256.681 44.2 255.961 45.46 255.081 46.74C254.241 47.98 253.221 49.04 252.021 49.92C250.861 50.76 249.521 51.18 248.001 51.18ZM248.901 37.5C250.341 36.02 251.741 34.32 253.101 32.4C254.461 30.44 255.721 28.42 256.881 26.34C258.081 24.22 259.081 22.22 259.881 20.34C260.161 19.74 260.381 19.08 260.541 18.36C260.741 17.64 260.841 17.04 260.841 16.56C260.841 16 260.701 15.72 260.421 15.72C260.261 15.72 260.021 15.88 259.701 16.2C259.381 16.48 258.961 16.98 258.441 17.7C257.681 18.7 256.841 20.06 255.921 21.78C255.041 23.5 254.141 25.34 253.221 27.3C252.301 29.26 251.461 31.16 250.701 33C249.941 34.8 249.341 36.3 248.901 37.5ZM271.034 51C269.954 51 269.054 50.46 268.334 49.38C268.134 49.06 267.954 48.64 267.794 48.12C267.634 47.6 267.554 47.02 267.554 46.38C267.554 46.02 267.574 45.66 267.614 45.3C267.654 44.9 267.734 44.5 267.854 44.1C267.294 44.98 266.634 45.96 265.874 47.04C265.154 48.08 264.314 49 263.354 49.8C262.434 50.56 261.394 50.94 260.234 50.94C259.834 50.94 259.414 50.88 258.974 50.76C257.894 50.44 257.114 49.88 256.634 49.08C256.194 48.28 255.974 47.32 255.974 46.2C255.974 44.96 256.214 43.6 256.694 42.12C257.214 40.64 257.854 39.2 258.614 37.8C259.414 36.4 260.234 35.2 261.074 34.2C262.274 32.8 263.654 31.68 265.214 30.84C266.774 30 268.354 29.58 269.954 29.58C271.394 29.58 272.754 29.96 274.034 30.72C274.634 29.6 275.274 28.36 275.954 27C276.634 25.6 277.314 24.22 277.994 22.86C278.674 21.5 279.274 20.26 279.794 19.14C280.314 17.98 280.714 17.1 280.994 16.5C281.594 15.1 282.154 14.22 282.674 13.86C283.234 13.46 283.894 13.26 284.654 13.26C285.094 13.26 285.574 13.32 286.094 13.44C286.654 13.52 287.194 13.54 287.714 13.5C287.474 13.74 286.974 14.44 286.214 15.6C285.494 16.72 284.634 18.16 283.634 19.92C282.634 21.68 281.554 23.62 280.394 25.74C279.274 27.82 278.154 29.94 277.034 32.1C275.954 34.22 274.934 36.24 273.974 38.16C273.054 40.04 272.314 41.66 271.754 43.02C271.594 43.34 271.354 44 271.034 45C270.754 45.96 270.614 46.8 270.614 47.52C270.614 48.04 270.734 48.5 270.974 48.9C271.214 49.26 271.614 49.44 272.174 49.44C272.934 49.44 273.694 49.06 274.454 48.3C275.254 47.5 276.014 46.54 276.734 45.42C277.454 44.26 278.094 43.14 278.654 42.06C279.214 40.94 279.634 40.06 279.914 39.42C280.114 38.98 280.354 38.76 280.634 38.76C280.874 38.76 280.994 38.94 280.994 39.3C280.994 39.34 280.994 39.42 280.994 39.54C280.994 39.62 280.954 39.72 280.874 39.84C280.514 40.68 280.014 41.72 279.374 42.96C278.774 44.2 278.054 45.44 277.214 46.68C276.374 47.92 275.434 48.96 274.394 49.8C273.354 50.6 272.234 51 271.034 51ZM260.654 49.2C261.214 49.2 261.914 48.9 262.754 48.3C263.594 47.66 264.494 46.66 265.454 45.3C266.574 43.7 267.854 41.7 269.294 39.3C270.734 36.9 272.154 34.36 273.554 31.68C273.034 31.2 272.434 30.96 271.754 30.96C270.634 30.96 269.374 31.48 267.974 32.52C266.614 33.56 265.274 34.88 263.954 36.48C262.674 38.08 261.594 39.7 260.714 41.34C260.114 42.46 259.674 43.48 259.394 44.4C259.154 45.32 259.034 46.12 259.034 46.8C259.034 48.4 259.574 49.2 260.654 49.2Z" fill="#B2A567"/>
</svg>
