<svg width="288" height="57" viewBox="0 0 288 57" fill="none" xmlns="http://www.w3.org/2000/svg">
<path d="M10.68 51.34C9.8 51.34 8.9 51.28 7.98 51.16C5.46 50.84 3.6 50.1 2.4 48.94C1.24 47.78 0.66 46.52 0.66 45.16C0.66 43.68 1.32 42.34 2.64 41.14C3.96 39.9 5.82 39.28 8.22 39.28C9.82 39.28 11.56 39.6 13.44 40.24C14.48 40.6 15.72 41.2 17.16 42.04C18.6 42.88 20.26 43.76 22.14 44.68C24.14 42.76 25.96 40.38 27.6 37.54C29.28 34.7 30.94 31.66 32.58 28.42C34.26 25.14 36.06 21.86 37.98 18.58C39.94 15.3 42.2 12.22 44.76 9.34L48.24 5.44C46.76 5.2 45.22 5.02 43.62 4.9C42.02 4.74 40.36 4.66 38.64 4.66C36.48 4.66 34.26 4.78 31.98 5.02C29.7 5.22 27.42 5.56 25.14 6.04C21.38 6.84 18.2 8.12 15.6 9.88C13 11.64 11.02 13.56 9.66 15.64C8.34 17.68 7.68 19.6 7.68 21.4C7.68 22.64 8.02 23.76 8.7 24.76C9.42 25.72 10.48 26.42 11.88 26.86C12.76 27.14 13.66 27.28 14.58 27.28C15.94 27.28 17.14 27 18.18 26.44C19.22 25.88 20.1 25.2 20.82 24.4C21.54 23.56 22.06 22.76 22.38 22C22.74 21.24 22.9 20.68 22.86 20.32C22.86 20.04 23.06 19.9 23.46 19.9C23.86 19.9 24.06 20.2 24.06 20.8V20.86C24.06 22.5 23.56 23.92 22.56 25.12C21.56 26.32 20.3 27.24 18.78 27.88C17.3 28.52 15.8 28.84 14.28 28.84C13.32 28.84 12.32 28.68 11.28 28.36C9.12 27.6 7.52 26.5 6.48 25.06C5.44 23.58 4.92 21.96 4.92 20.2C4.92 18.56 5.36 16.88 6.24 15.16C7.16 13.4 8.5 11.74 10.26 10.18C12.02 8.58 14.2 7.2 16.8 6.04C19.44 4.88 22.48 4.06 25.92 3.58C27.76 3.3 29.58 3.1 31.38 2.98C33.18 2.86 34.92 2.8 36.6 2.8C38.92 2.8 41.18 2.92 43.38 3.16C45.62 3.36 47.72 3.68 49.68 4.12C50.24 3.64 50.8 3.22 51.36 2.86C51.96 2.5 52.5 2.22 52.98 2.02C53.26 1.9 53.5 1.82 53.7 1.78C53.9 1.74 54.06 1.72 54.18 1.72C54.42 1.72 54.54 1.8 54.54 1.96C54.54 2.16 54.24 2.48 53.64 2.92C53.24 3.2 52.86 3.52 52.5 3.88C52.14 4.2 51.92 4.44 51.84 4.6C55.92 5.64 59.22 7.08 61.74 8.92C64.3 10.72 65.58 12.86 65.58 15.34C65.58 16.62 65.16 18.02 64.32 19.54C63.44 21.02 62.22 22.22 60.66 23.14C59.1 24.02 57.44 24.68 55.68 25.12C53.92 25.52 52.28 25.76 50.76 25.84C52.08 26.24 53.52 26.84 55.08 27.64C56.68 28.4 58.14 29.34 59.46 30.46C60.82 31.58 61.72 32.9 62.16 34.42C62.44 35.38 62.58 36.36 62.58 37.36C62.58 39.48 61.96 41.4 60.72 43.12C59.52 44.84 57.9 46.32 55.86 47.56C53.86 48.76 51.66 49.68 49.26 50.32C46.86 51 44.48 51.34 42.12 51.34C41.24 51.34 40.34 51.28 39.42 51.16C35.58 50.68 32.4 50.08 29.88 49.36C27.4 48.64 25.22 47.84 23.34 46.96C19.46 49.88 15.24 51.34 10.68 51.34ZM41.28 49.6C43.76 49.6 46.02 49.22 48.06 48.46C50.1 47.7 51.86 46.7 53.34 45.46C54.86 44.22 56.02 42.84 56.82 41.32C57.66 39.8 58.08 38.3 58.08 36.82C58.08 35.42 57.66 34.06 56.82 32.74C55.98 31.42 54.66 30.32 52.86 29.44C51.3 28.68 49.68 28.06 48 27.58C46.36 27.06 44.94 26.62 43.74 26.26C42.54 25.86 41.84 25.46 41.64 25.06C41.64 24.58 41.84 24.26 42.24 24.1C42.68 23.9 43.24 23.8 43.92 23.8C44.72 23.8 45.68 23.86 46.8 23.98C47.92 24.1 49.1 24.16 50.34 24.16C51.62 24.16 52.92 23.88 54.24 23.32C55.6 22.72 56.84 21.94 57.96 20.98C59.08 19.98 59.98 18.9 60.66 17.74C61.38 16.54 61.74 15.32 61.74 14.08C61.74 12.96 61.36 11.86 60.6 10.78C59.84 9.7 58.58 8.76 56.82 7.96C55.06 7.16 53.16 6.52 51.12 6.04C49.12 8.8 47.12 11.9 45.12 15.34C43.12 18.74 41.12 22.2 39.12 25.72C37.12 29.2 35.1 32.5 33.06 35.62C31.02 38.74 28.98 41.42 26.94 43.66C26.46 44.18 26.08 44.58 25.8 44.86C25.52 45.1 25.14 45.44 24.66 45.88C26.54 46.64 28.68 47.36 31.08 48.04C33.48 48.72 36.22 49.2 39.3 49.48C39.62 49.52 39.94 49.54 40.26 49.54C40.62 49.58 40.96 49.6 41.28 49.6ZM9.48 49.48C11.72 49.6 13.76 49.34 15.6 48.7C17.48 48.02 19.22 47.08 20.82 45.88C19.42 45.2 17.98 44.5 16.5 43.78C15.06 43.02 13.52 42.34 11.88 41.74C10.72 41.34 9.66 41.14 8.7 41.14C7.22 41.14 6.1 41.54 5.34 42.34C4.58 43.1 4.2 43.98 4.2 44.98C4.2 46.02 4.64 47.02 5.52 47.98C6.4 48.9 7.72 49.4 9.48 49.48ZM155.943 56.5C154.743 56.5 153.743 56.06 152.943 55.18C152.183 54.3 151.883 52.64 152.043 50.2C152.203 47.68 152.983 44.44 154.383 40.48C155.783 36.52 157.603 31.86 159.843 26.5C160.563 24.78 161.283 22.86 162.003 20.74C162.763 18.62 163.403 16.5 163.923 14.38C164.443 12.22 164.703 10.28 164.703 8.56C164.703 7.36 164.543 6.32 164.223 5.44C163.943 4.52 163.423 3.84 162.663 3.4C161.783 2.84 160.843 2.44 159.843 2.2C158.843 1.96 157.783 1.84 156.663 1.84C154.143 1.84 151.483 2.42 148.683 3.58C145.923 4.74 143.243 6.34 140.643 8.38C138.083 10.38 135.783 12.66 133.743 15.22C131.743 17.78 130.223 20.44 129.183 23.2C128.583 24.84 128.143 26.38 127.863 27.82C127.583 29.26 127.443 30.56 127.443 31.72C127.443 33.92 127.843 35.76 128.643 37.24C129.483 38.68 130.563 39.76 131.883 40.48C133.243 41.16 134.703 41.5 136.263 41.5C137.743 41.5 139.143 41.24 140.463 40.72C142.183 40.08 143.723 39 145.083 37.48C146.443 35.96 147.523 34.28 148.323 32.44C149.123 30.56 149.523 28.84 149.523 27.28C149.523 25.92 149.163 24.78 148.443 23.86C147.763 22.94 146.623 22.48 145.023 22.48C144.783 22.48 144.543 22.48 144.303 22.48C144.103 22.48 143.863 22.52 143.583 22.6C143.423 22.64 143.283 22.66 143.163 22.66C143.043 22.66 142.943 22.66 142.863 22.66C142.503 22.66 142.323 22.58 142.323 22.42C142.323 22.18 142.703 21.92 143.463 21.64C144.703 21.24 145.863 21.04 146.943 21.04C148.823 21.04 150.223 21.6 151.143 22.72C152.063 23.8 152.523 25.18 152.523 26.86C152.523 28.54 152.063 30.36 151.143 32.32C150.223 34.24 148.863 36.08 147.063 37.84C145.303 39.6 143.083 41.04 140.403 42.16C138.963 42.76 137.483 43.06 135.963 43.06C133.883 43.06 131.923 42.52 130.083 41.44C128.243 40.36 126.743 38.82 125.583 36.82C124.423 34.82 123.843 32.46 123.843 29.74C123.843 28.42 124.003 27.04 124.323 25.6C124.643 24.16 125.143 22.64 125.823 21.04C127.143 17.96 128.943 15.16 131.223 12.64C133.503 10.08 136.043 7.88 138.843 6.04C141.683 4.16 144.583 2.72 147.543 1.72C150.503 0.719998 153.323 0.219999 156.003 0.219999C158.363 0.219999 160.503 0.639998 162.423 1.48C164.543 2.4 166.023 3.72 166.863 5.44C167.743 7.12 168.183 9.02 168.183 11.14C168.183 13.46 167.783 15.94 166.983 18.58C166.223 21.18 165.283 23.74 164.163 26.26C162.923 29.1 161.703 32.06 160.503 35.14C159.303 38.22 158.263 41.14 157.383 43.9C156.503 46.66 155.883 48.96 155.523 50.8C155.443 51.24 155.383 51.62 155.343 51.94C155.303 52.3 155.283 52.6 155.283 52.84C155.283 54.24 155.743 54.94 156.663 54.94C157.223 54.94 157.883 54.7 158.643 54.22C160.123 53.34 161.623 52.02 163.143 50.26C164.663 48.5 166.163 46.5 167.643 44.26C169.163 41.98 170.623 39.66 172.023 37.3C173.423 34.9 174.763 32.64 176.043 30.52C177.323 28.4 178.483 26.6 179.523 25.12C180.163 24.24 180.763 23.6 181.323 23.2C181.883 22.76 182.363 22.54 182.763 22.54C183.603 22.54 184.023 23.18 184.023 24.46C184.023 25.22 183.843 26.14 183.483 27.22C182.963 28.74 182.263 30.48 181.383 32.44C180.503 34.36 179.683 36.32 178.923 38.32C178.163 40.28 177.663 42.12 177.423 43.84C177.383 44.28 177.343 44.68 177.303 45.04C177.303 45.36 177.303 45.7 177.303 46.06C177.303 48.14 177.723 49.62 178.563 50.5C179.403 51.42 180.503 51.88 181.863 51.88C183.423 51.88 185.183 51.38 187.143 50.38C189.143 49.38 191.143 48.06 193.143 46.42C195.143 44.74 196.943 42.9 198.543 40.9C200.183 38.9 201.423 36.9 202.263 34.9C203.183 32.7 203.883 30.56 204.363 28.48C204.843 26.4 205.083 24.5 205.083 22.78C205.083 20.02 204.483 17.78 203.283 16.06C202.083 14.3 200.203 13.42 197.643 13.42C197.443 13.42 197.223 13.44 196.983 13.48C196.743 13.48 196.483 13.5 196.203 13.54C195.243 13.78 194.543 13.9 194.103 13.9C193.583 13.9 193.323 13.78 193.323 13.54C193.323 13.22 193.723 12.86 194.523 12.46C195.323 12.06 196.163 11.94 197.043 12.1C198.963 11.94 200.763 12.38 202.443 13.42C204.163 14.42 205.543 15.94 206.583 17.98C207.623 19.98 208.143 22.42 208.143 25.3C208.143 26.78 207.983 28.38 207.663 30.1C207.343 31.82 206.803 33.62 206.043 35.5C205.043 38.02 203.643 40.36 201.843 42.52C200.043 44.68 198.023 46.58 195.783 48.22C193.583 49.86 191.323 51.12 189.003 52C186.723 52.92 184.583 53.38 182.583 53.38C180.303 53.38 178.383 52.66 176.823 51.22C175.303 49.82 174.543 47.54 174.543 44.38C174.543 43.06 174.663 41.72 174.903 40.36C175.143 39 175.423 37.8 175.743 36.76C175.063 37.88 174.163 39.28 173.043 40.96C171.923 42.6 170.643 44.32 169.203 46.12C167.803 47.92 166.343 49.6 164.823 51.16C163.303 52.76 161.783 54.04 160.263 55C158.743 56 157.303 56.5 155.943 56.5Z" fill="black"/>
<path d="M69.0525 49C67.5325 49 66.4125 48.5 65.6925 47.5C64.9725 46.46 64.6125 45.2 64.6125 43.72C64.6125 41.92 65.0325 40.04 65.8725 38.08C66.6725 36.24 67.6925 34.56 68.9325 33.04C70.1725 31.52 71.5125 30.3 72.9525 29.38C74.3925 28.42 75.7925 27.94 77.1525 27.94C78.6725 27.94 79.7925 28.44 80.5125 29.44C81.2325 30.44 81.5925 31.7 81.5925 33.22C81.5925 35.06 81.1725 36.94 80.3325 38.86C79.8525 39.94 79.1725 41.14 78.2925 42.46C77.4125 43.74 76.4125 44.92 75.2925 46C75.5325 46.44 75.8725 46.82 76.3125 47.14C76.7525 47.42 77.3525 47.56 78.1125 47.56C79.0725 47.56 79.9725 47.16 80.8125 46.36C81.6925 45.56 82.4925 44.6 83.2125 43.48C83.9325 42.32 84.5725 41.16 85.1325 40C85.6925 38.84 86.1525 37.9 86.5125 37.18C86.6325 36.94 86.8325 36.82 87.1125 36.82C87.2725 36.82 87.3925 36.9 87.4725 37.06C87.5525 37.18 87.5325 37.38 87.4125 37.66C87.1725 38.26 86.7725 39.16 86.2125 40.36C85.6525 41.52 84.9725 42.74 84.1725 44.02C83.3725 45.26 82.4525 46.32 81.4125 47.2C80.3725 48.08 79.2125 48.52 77.9325 48.52C77.0525 48.52 76.2925 48.38 75.6525 48.1C75.0125 47.78 74.4925 47.4 74.0925 46.96C73.2525 47.6 72.4125 48.1 71.5725 48.46C70.7325 48.82 69.8925 49 69.0525 49ZM69.9525 47.68C71.0325 47.68 72.1925 47.16 73.4325 46.12C73.1125 45.64 72.8725 45.14 72.7125 44.62C72.5525 44.1 72.4725 43.62 72.4725 43.18C72.4725 42.46 72.6325 41.84 72.9525 41.32C73.3125 40.8 73.8525 40.54 74.5725 40.54C75.0925 40.54 75.5125 40.74 75.8325 41.14C76.1925 41.5 76.3725 41.92 76.3725 42.4C76.3725 42.52 76.3525 42.64 76.3125 42.76C76.3125 42.84 76.2925 42.94 76.2525 43.06C76.9325 42.14 77.5725 41.06 78.1725 39.82C79.4925 36.98 80.1525 34.64 80.1525 32.8C80.1525 31.88 79.9725 31.16 79.6125 30.64C79.2525 30.12 78.7125 29.86 77.9925 29.86C77.1525 29.86 76.2325 30.22 75.2325 30.94C74.2725 31.66 73.3325 32.62 72.4125 33.82C71.5325 35.02 70.7525 36.36 70.0725 37.84C69.4325 39.2 68.9125 40.52 68.5125 41.8C68.1525 43.04 67.9725 44.12 67.9725 45.04C67.9725 45.84 68.1325 46.48 68.4525 46.96C68.7725 47.44 69.2725 47.68 69.9525 47.68ZM89.1502 49C87.6302 49 86.5102 48.5 85.7902 47.5C85.0702 46.46 84.7102 45.2 84.7102 43.72C84.7102 41.92 85.1302 40.04 85.9702 38.08C86.7702 36.24 87.7902 34.56 89.0302 33.04C90.2702 31.52 91.6102 30.3 93.0502 29.38C94.4902 28.42 95.8902 27.94 97.2502 27.94C98.7702 27.94 99.8902 28.44 100.61 29.44C101.33 30.44 101.69 31.7 101.69 33.22C101.69 35.06 101.27 36.94 100.43 38.86C99.9502 39.94 99.2702 41.14 98.3902 42.46C97.5102 43.74 96.5102 44.92 95.3902 46C95.6302 46.44 95.9702 46.82 96.4102 47.14C96.8502 47.42 97.4502 47.56 98.2102 47.56C99.1702 47.56 100.07 47.16 100.91 46.36C101.79 45.56 102.59 44.6 103.31 43.48C104.03 42.32 104.67 41.16 105.23 40C105.79 38.84 106.25 37.9 106.61 37.18C106.73 36.94 106.93 36.82 107.21 36.82C107.37 36.82 107.49 36.9 107.57 37.06C107.65 37.18 107.63 37.38 107.51 37.66C107.27 38.26 106.87 39.16 106.31 40.36C105.75 41.52 105.07 42.74 104.27 44.02C103.47 45.26 102.55 46.32 101.51 47.2C100.47 48.08 99.3102 48.52 98.0302 48.52C97.1502 48.52 96.3902 48.38 95.7502 48.1C95.1102 47.78 94.5902 47.4 94.1902 46.96C93.3502 47.6 92.5102 48.1 91.6702 48.46C90.8302 48.82 89.9902 49 89.1502 49ZM90.0502 47.68C91.1302 47.68 92.2902 47.16 93.5302 46.12C93.2102 45.64 92.9702 45.14 92.8102 44.62C92.6502 44.1 92.5702 43.62 92.5702 43.18C92.5702 42.46 92.7302 41.84 93.0502 41.32C93.4102 40.8 93.9502 40.54 94.6702 40.54C95.1902 40.54 95.6102 40.74 95.9302 41.14C96.2902 41.5 96.4702 41.92 96.4702 42.4C96.4702 42.52 96.4502 42.64 96.4102 42.76C96.4102 42.84 96.3902 42.94 96.3502 43.06C97.0302 42.14 97.6702 41.06 98.2702 39.82C99.5902 36.98 100.25 34.64 100.25 32.8C100.25 31.88 100.07 31.16 99.7102 30.64C99.3502 30.12 98.8102 29.86 98.0902 29.86C97.2502 29.86 96.3302 30.22 95.3302 30.94C94.3702 31.66 93.4302 32.62 92.5102 33.82C91.6302 35.02 90.8502 36.36 90.1702 37.84C89.5302 39.2 89.0102 40.52 88.6102 41.8C88.2502 43.04 88.0702 44.12 88.0702 45.04C88.0702 45.84 88.2302 46.48 88.5502 46.96C88.8702 47.44 89.3702 47.68 90.0502 47.68ZM117.228 49.42C116.148 49.3 115.168 48.8 114.288 47.92C113.448 47 112.868 45.78 112.548 44.26C112.508 43.98 112.468 43.74 112.428 43.54C112.428 43.3 112.428 43.04 112.428 42.76C112.428 41.16 112.788 39.88 113.508 38.92C114.228 37.92 114.888 37.4 115.488 37.36C116.128 37.4 116.908 37.26 117.828 36.94C118.748 36.58 119.548 36.1 120.228 35.5C121.388 34.58 121.968 33.64 121.968 32.68C121.968 31.68 121.388 31.18 120.228 31.18C119.588 31.18 118.768 31.4 117.768 31.84C116.808 32.28 115.688 33.04 114.408 34.12C112.808 35.48 111.148 37.3 109.428 39.58C109.188 40.1 108.908 40.88 108.588 41.92C108.268 42.92 107.988 43.96 107.748 45.04C107.548 46.12 107.448 47.04 107.448 47.8C107.448 48.4 107.548 48.8 107.748 49H103.968C103.528 49 103.308 48.82 103.308 48.46C103.308 48.34 103.328 48.24 103.368 48.16C103.408 48.08 103.448 47.92 103.488 47.68C104.048 45.6 104.788 43.64 105.708 41.8C106.628 39.96 107.548 38.02 108.468 35.98C107.068 38.58 105.788 40.88 104.628 42.88C103.508 44.84 102.648 46.1 102.048 46.66C101.968 46.74 101.868 46.78 101.748 46.78C101.588 46.78 101.488 46.68 101.448 46.48C101.368 46.28 101.408 46.08 101.568 45.88C102.408 44.76 103.368 43.22 104.448 41.26C105.568 39.3 106.748 37.12 107.988 34.72C109.228 32.28 110.488 29.82 111.768 27.34C113.048 24.86 114.288 22.52 115.488 20.32C116.728 18.12 117.848 16.26 118.848 14.74C119.568 13.66 120.248 12.9 120.888 12.46C121.528 11.98 122.188 11.74 122.868 11.74H123.168C123.528 11.74 123.928 11.8 124.368 11.92C124.848 12.04 125.288 12.06 125.688 11.98C124.928 12.58 124.008 13.56 122.928 14.92C121.848 16.28 120.708 17.9 119.508 19.78C118.308 21.66 117.088 23.66 115.848 25.78C114.648 27.9 113.508 30 112.428 32.08C112.028 32.88 111.648 33.72 111.288 34.6C110.928 35.48 110.588 36.36 110.268 37.24C111.108 36.2 112.068 35.12 113.148 34C114.228 32.88 115.348 31.86 116.508 30.94C117.708 29.98 118.888 29.28 120.048 28.84C121.368 28.36 122.468 28.12 123.348 28.12C124.268 28.12 124.928 28.34 125.328 28.78C125.768 29.22 125.988 29.78 125.988 30.46C125.988 31.22 125.688 32.14 125.088 33.22C124.488 34.26 123.668 35.16 122.628 35.92C121.748 36.52 120.828 37.04 119.868 37.48C118.908 37.92 117.768 38.2 116.448 38.32C116.208 38.88 116.028 39.46 115.908 40.06C115.828 40.62 115.788 41.18 115.788 41.74C115.788 43.3 116.148 44.68 116.868 45.88C117.588 47.04 118.528 47.62 119.688 47.62C120.248 47.62 120.848 47.46 121.488 47.14C122.168 46.82 122.868 46.28 123.588 45.52C124.388 44.72 125.188 43.58 125.988 42.1C126.828 40.62 127.668 39 128.508 37.24C128.668 36.92 128.848 36.76 129.048 36.76C129.288 36.76 129.408 36.92 129.408 37.24C129.408 37.4 129.348 37.6 129.228 37.84C128.068 40.52 126.948 42.66 125.868 44.26C124.828 45.82 123.808 47 122.808 47.8C121.848 48.56 120.908 49.04 119.988 49.24C119.068 49.44 118.148 49.5 117.228 49.42ZM212.138 49C210.618 49 209.498 48.5 208.778 47.5C208.058 46.46 207.698 45.2 207.698 43.72C207.698 41.92 208.118 40.04 208.958 38.08C209.758 36.24 210.778 34.56 212.018 33.04C213.258 31.52 214.598 30.3 216.038 29.38C217.478 28.42 218.878 27.94 220.238 27.94C221.758 27.94 222.878 28.44 223.598 29.44C224.318 30.44 224.678 31.7 224.678 33.22C224.678 35.06 224.258 36.94 223.418 38.86C222.938 39.94 222.258 41.14 221.378 42.46C220.498 43.74 219.498 44.92 218.378 46C218.618 46.44 218.958 46.82 219.398 47.14C219.838 47.42 220.438 47.56 221.198 47.56C222.158 47.56 223.058 47.16 223.898 46.36C224.778 45.56 225.578 44.6 226.298 43.48C227.018 42.32 227.658 41.16 228.218 40C228.778 38.84 229.238 37.9 229.598 37.18C229.718 36.94 229.918 36.82 230.198 36.82C230.358 36.82 230.478 36.9 230.558 37.06C230.638 37.18 230.618 37.38 230.498 37.66C230.258 38.26 229.858 39.16 229.298 40.36C228.738 41.52 228.058 42.74 227.258 44.02C226.458 45.26 225.538 46.32 224.498 47.2C223.458 48.08 222.298 48.52 221.018 48.52C220.138 48.52 219.378 48.38 218.738 48.1C218.098 47.78 217.578 47.4 217.178 46.96C216.338 47.6 215.498 48.1 214.658 48.46C213.818 48.82 212.978 49 212.138 49ZM213.038 47.68C214.118 47.68 215.278 47.16 216.518 46.12C216.198 45.64 215.958 45.14 215.798 44.62C215.638 44.1 215.558 43.62 215.558 43.18C215.558 42.46 215.718 41.84 216.038 41.32C216.398 40.8 216.938 40.54 217.658 40.54C218.178 40.54 218.598 40.74 218.918 41.14C219.278 41.5 219.458 41.92 219.458 42.4C219.458 42.52 219.438 42.64 219.398 42.76C219.398 42.84 219.378 42.94 219.338 43.06C220.018 42.14 220.658 41.06 221.258 39.82C222.578 36.98 223.238 34.64 223.238 32.8C223.238 31.88 223.058 31.16 222.698 30.64C222.338 30.12 221.798 29.86 221.078 29.86C220.238 29.86 219.318 30.22 218.318 30.94C217.358 31.66 216.418 32.62 215.498 33.82C214.618 35.02 213.838 36.36 213.158 37.84C212.518 39.2 211.998 40.52 211.598 41.8C211.238 43.04 211.058 44.12 211.058 45.04C211.058 45.84 211.218 46.48 211.538 46.96C211.858 47.44 212.358 47.68 213.038 47.68ZM236.496 49.06C235.736 49.06 234.976 48.76 234.216 48.16C233.456 47.52 233.076 46.5 233.076 45.1C233.076 44.02 233.336 42.78 233.856 41.38C234.336 40.02 234.976 38.7 235.776 37.42C236.616 36.14 237.216 35.1 237.576 34.3C237.696 33.98 237.756 33.7 237.756 33.46C237.756 32.74 237.296 32.22 236.376 31.9C235.496 31.58 234.336 31.4 232.896 31.36L232.176 33.34C231.736 34.62 231.116 36.12 230.316 37.84C229.556 39.56 228.696 41.22 227.736 42.82C226.816 44.42 225.856 45.7 224.856 46.66C224.776 46.74 224.676 46.78 224.556 46.78C224.396 46.78 224.296 46.68 224.256 46.48C224.176 46.28 224.256 46.04 224.496 45.76C226.056 43.68 227.456 41.38 228.696 38.86C229.936 36.3 230.976 33.7 231.816 31.06C232.696 28.42 233.336 25.98 233.736 23.74C233.856 23.1 234.076 22.64 234.396 22.36C234.716 22.04 235.056 21.88 235.416 21.88C235.936 21.88 236.416 22.14 236.856 22.66C237.296 23.14 237.516 23.84 237.516 24.76C237.516 24.92 237.496 25.1 237.456 25.3C237.456 25.5 237.436 25.7 237.396 25.9C237.236 26.74 236.756 27.54 235.956 28.3C235.196 29.02 234.576 29.56 234.096 29.92C234.496 29.96 234.916 30 235.356 30.04C235.796 30.04 236.276 30.04 236.796 30.04C238.676 30.04 240.536 29.92 242.376 29.68C242.456 29.92 242.496 30.1 242.496 30.22C242.496 30.74 242.336 31.4 242.016 32.2C241.736 33 241.436 33.72 241.116 34.36C240.956 34.72 240.636 35.38 240.156 36.34C239.676 37.26 239.156 38.32 238.596 39.52C238.036 40.68 237.556 41.84 237.156 43C236.796 44.12 236.616 45.08 236.616 45.88C236.616 46.92 237.016 47.44 237.816 47.44C238.416 47.44 239.076 47.06 239.796 46.3C240.516 45.5 241.216 44.54 241.896 43.42C242.616 42.26 243.256 41.14 243.816 40.06C244.416 38.94 244.876 38.06 245.196 37.42C245.356 37.02 245.576 36.82 245.856 36.82C246.016 36.82 246.096 36.96 246.096 37.24C246.096 37.4 246.036 37.64 245.916 37.96C245.476 38.88 244.956 39.92 244.356 41.08C243.756 42.24 243.076 43.38 242.316 44.5C241.596 45.62 240.796 46.6 239.916 47.44C239.076 48.24 238.156 48.76 237.156 49C237.036 49.04 236.816 49.06 236.496 49.06ZM248.001 49.18C246.321 49.18 245.181 48.74 244.581 47.86C243.981 46.94 243.681 45.86 243.681 44.62C243.681 43.34 243.861 42.02 244.221 40.66C244.581 39.3 244.901 38.16 245.181 37.24C245.821 35 246.621 32.62 247.581 30.1C248.581 27.54 249.661 25.04 250.821 22.6C252.021 20.12 253.201 17.9 254.361 15.94C255.281 14.38 256.261 13.22 257.301 12.46C258.381 11.66 259.321 11.26 260.121 11.26C260.761 11.26 261.261 11.5 261.621 11.98C262.021 12.42 262.221 13.1 262.221 14.02C262.221 14.66 262.101 15.42 261.861 16.3C261.661 17.18 261.301 18.18 260.781 19.3C259.381 22.42 257.701 25.54 255.741 28.66C253.821 31.78 251.381 34.7 248.421 37.42C248.261 37.94 248.041 38.56 247.761 39.28C247.521 39.96 247.301 40.66 247.101 41.38C246.861 42.46 246.741 43.38 246.741 44.14C246.741 45.38 246.981 46.32 247.461 46.96C247.981 47.56 248.601 47.86 249.321 47.86C249.961 47.86 250.641 47.64 251.361 47.2C252.081 46.72 252.761 46.04 253.401 45.16C254.361 43.76 255.221 42.34 255.981 40.9C256.781 39.42 257.381 38.28 257.781 37.48C258.021 37.04 258.281 36.82 258.561 36.82C258.761 36.82 258.861 36.94 258.861 37.18C258.861 37.38 258.801 37.6 258.681 37.84C258.321 38.64 257.841 39.68 257.241 40.96C256.681 42.2 255.961 43.46 255.081 44.74C254.241 45.98 253.221 47.04 252.021 47.92C250.861 48.76 249.521 49.18 248.001 49.18ZM248.901 35.5C250.341 34.02 251.741 32.32 253.101 30.4C254.461 28.44 255.721 26.42 256.881 24.34C258.081 22.22 259.081 20.22 259.881 18.34C260.161 17.74 260.381 17.08 260.541 16.36C260.741 15.64 260.841 15.04 260.841 14.56C260.841 14 260.701 13.72 260.421 13.72C260.261 13.72 260.021 13.88 259.701 14.2C259.381 14.48 258.961 14.98 258.441 15.7C257.681 16.7 256.841 18.06 255.921 19.78C255.041 21.5 254.141 23.34 253.221 25.3C252.301 27.26 251.461 29.16 250.701 31C249.941 32.8 249.341 34.3 248.901 35.5ZM271.034 49C269.954 49 269.054 48.46 268.334 47.38C268.134 47.06 267.954 46.64 267.794 46.12C267.634 45.6 267.554 45.02 267.554 44.38C267.554 44.02 267.574 43.66 267.614 43.3C267.654 42.9 267.734 42.5 267.854 42.1C267.294 42.98 266.634 43.96 265.874 45.04C265.154 46.08 264.314 47 263.354 47.8C262.434 48.56 261.394 48.94 260.234 48.94C259.834 48.94 259.414 48.88 258.974 48.76C257.894 48.44 257.114 47.88 256.634 47.08C256.194 46.28 255.974 45.32 255.974 44.2C255.974 42.96 256.214 41.6 256.694 40.12C257.214 38.64 257.854 37.2 258.614 35.8C259.414 34.4 260.234 33.2 261.074 32.2C262.274 30.8 263.654 29.68 265.214 28.84C266.774 28 268.354 27.58 269.954 27.58C271.394 27.58 272.754 27.96 274.034 28.72C274.634 27.6 275.274 26.36 275.954 25C276.634 23.6 277.314 22.22 277.994 20.86C278.674 19.5 279.274 18.26 279.794 17.14C280.314 15.98 280.714 15.1 280.994 14.5C281.594 13.1 282.154 12.22 282.674 11.86C283.234 11.46 283.894 11.26 284.654 11.26C285.094 11.26 285.574 11.32 286.094 11.44C286.654 11.52 287.194 11.54 287.714 11.5C287.474 11.74 286.974 12.44 286.214 13.6C285.494 14.72 284.634 16.16 283.634 17.92C282.634 19.68 281.554 21.62 280.394 23.74C279.274 25.82 278.154 27.94 277.034 30.1C275.954 32.22 274.934 34.24 273.974 36.16C273.054 38.04 272.314 39.66 271.754 41.02C271.594 41.34 271.354 42 271.034 43C270.754 43.96 270.614 44.8 270.614 45.52C270.614 46.04 270.734 46.5 270.974 46.9C271.214 47.26 271.614 47.44 272.174 47.44C272.934 47.44 273.694 47.06 274.454 46.3C275.254 45.5 276.014 44.54 276.734 43.42C277.454 42.26 278.094 41.14 278.654 40.06C279.214 38.94 279.634 38.06 279.914 37.42C280.114 36.98 280.354 36.76 280.634 36.76C280.874 36.76 280.994 36.94 280.994 37.3C280.994 37.34 280.994 37.42 280.994 37.54C280.994 37.62 280.954 37.72 280.874 37.84C280.514 38.68 280.014 39.72 279.374 40.96C278.774 42.2 278.054 43.44 277.214 44.68C276.374 45.92 275.434 46.96 274.394 47.8C273.354 48.6 272.234 49 271.034 49ZM260.654 47.2C261.214 47.2 261.914 46.9 262.754 46.3C263.594 45.66 264.494 44.66 265.454 43.3C266.574 41.7 267.854 39.7 269.294 37.3C270.734 34.9 272.154 32.36 273.554 29.68C273.034 29.2 272.434 28.96 271.754 28.96C270.634 28.96 269.374 29.48 267.974 30.52C266.614 31.56 265.274 32.88 263.954 34.48C262.674 36.08 261.594 37.7 260.714 39.34C260.114 40.46 259.674 41.48 259.394 42.4C259.154 43.32 259.034 44.12 259.034 44.8C259.034 46.4 259.574 47.2 260.654 47.2Z" fill="#707B51"/>
</svg>
